<svg width="18" height="14" viewBox="0 0 18 14" fill="none" xmlns="http://www.w3.org/2000/svg">
<path d="M4.95 7C6.19059 7 7.2 5.69151 7.2 4.08333C7.2 2.47516 6.19059 1.16667 4.95 1.16667C3.70941 1.16667 2.7 2.47516 2.7 4.08333C2.7 5.69151 3.70941 7 4.95 7ZM14.85 2.33333H8.55C8.30137 2.33333 8.1 2.59438 8.1 2.91667V8.16667H1.8V0.583333C1.8 0.261042 1.59863 0 1.35 0H0.45C0.201375 0 0 0.261042 0 0.583333V13.4167C0 13.739 0.201375 14 0.45 14H1.35C1.59863 14 1.8 13.739 1.8 13.4167V11.6667H16.2V13.4167C16.2 13.739 16.4014 14 16.65 14H17.55C17.7986 14 18 13.739 18 13.4167V6.41667C18 4.16135 16.5898 2.33333 14.85 2.33333Z" fill="#545156"/>
</svg>
