<svg width="50" height="65" viewBox="0 0 50 65" fill="none" xmlns="http://www.w3.org/2000/svg">
    <g clip-path="url(#clip0)">
        <path
            d="M27.4344 12.21L49.5707 29.6929C50.6383 30.536 50.6383 31.9031 49.5707 32.7461L46.9888 34.7852C45.923 35.627 44.1957 35.6286 43.1274 34.7888L25.5013 20.9334L7.87537 34.7889C6.80707 35.6287 5.07973 35.6271 4.01393 34.7853L1.43209 32.7462C0.364474 31.9031 0.364474 30.536 1.43209 29.6929L23.5684 12.2101C24.6359 11.3669 26.3668 11.3669 27.4344 12.21Z"
            fill="#6A60A9" />
    </g>
    <path
        d="M28.125 20.6615V22.2233C28.125 23.2362 28.836 24.1132 29.8521 24.3857C37.4223 26.4157 42.9687 33.0798 42.9687 41C42.9687 50.5333 34.9321 58.25 25 58.25C15.0694 58.25 7.03125 50.5349 7.03125 41C7.03125 33.0809 12.5768 26.4159 20.1477 24.3857C21.164 24.1132 21.875 23.236 21.875 22.223V20.6622C21.875 19.1895 20.4264 18.1167 18.9408 18.4841C8.45732 21.0764 0.722072 30.2381 0.781545 41.1249C0.851857 53.9735 11.668 64.277 25.0521 64.2499C38.4038 64.2229 49.2187 53.8239 49.2187 41C49.2187 30.1594 41.4902 21.052 31.0341 18.4779C29.5584 18.1146 28.125 19.199 28.125 20.6615Z"
        fill="#6A60A9" />
    <path
        d="M25 21C18.9249 21 14 26.1487 14 32.5C14 38.8513 18.9249 44 25 44C31.0751 44 36 38.8513 36 32.5C36 26.1487 31.0751 21 25 21ZM28.5484 32.5C28.5484 34.5455 26.9566 36.2097 25 36.2097C23.0434 36.2097 21.4516 34.5455 21.4516 32.5C21.4516 30.4545 23.0434 28.7903 25 28.7903C26.9566 28.7903 28.5484 30.4545 28.5484 32.5Z"
        fill="#6A60A9" />
    <defs>
        <clipPath id="clip0">
            <rect width="50" height="48" fill="white" />
        </clipPath>
    </defs>
</svg>