<svg width="207" height="43" viewBox="0 0 207 43" fill="none" xmlns="http://www.w3.org/2000/svg">
    <path d="M3.39258 38.6232V12.924H7.59375V35.0197H18.4746V38.6232H3.39258Z" fill="#6A60A9" />
    <path
        d="M67.1886 31.6447C67.1886 33.9298 66.3624 35.7228 64.7101 37.0236C63.0577 38.3244 60.7784 38.9748 57.8722 38.9748C54.9659 38.9748 52.587 38.5236 50.7355 37.6212V33.6486C51.9073 34.1994 53.1495 34.633 54.462 34.9494C55.7863 35.2658 57.0167 35.424 58.1534 35.424C59.8175 35.424 61.0421 35.1076 61.8273 34.4748C62.6241 33.8419 63.0226 32.9923 63.0226 31.9259C63.0226 30.965 62.6593 30.1505 61.9327 29.4826C61.2062 28.8146 59.7062 28.0236 57.4327 27.1095C55.089 26.1603 53.4366 25.0763 52.4757 23.8576C51.5148 22.6388 51.0343 21.174 51.0343 19.463C51.0343 17.3185 51.796 15.631 53.3195 14.4005C54.8429 13.1701 56.8878 12.5548 59.4542 12.5548C61.9152 12.5548 64.3644 13.0939 66.8019 14.172L65.4659 17.5998C63.1808 16.6388 61.1417 16.1584 59.3488 16.1584C57.9894 16.1584 56.9581 16.4572 56.255 17.0548C55.5519 17.6408 55.2003 18.4201 55.2003 19.3927C55.2003 20.0607 55.3409 20.6349 55.6222 21.1154C55.9034 21.5841 56.3663 22.0294 57.0109 22.4513C57.6554 22.8732 58.8156 23.4298 60.4913 24.1212C62.3781 24.9064 63.7609 25.6388 64.6398 26.3185C65.5187 26.9982 66.1632 27.7658 66.5734 28.6212C66.9835 29.4767 67.1886 30.4845 67.1886 31.6447ZM81.0402 38.6232H76.839V16.5275H69.2804V12.924H88.5988V16.5275H81.0402V38.6232ZM113.964 38.6232H108.814L96.1749 18.1447H96.0343L96.1222 19.2873C96.2863 21.4669 96.3683 23.4591 96.3683 25.2638V38.6232H92.5538V12.924H97.6515L110.255 33.297H110.36C110.337 33.0275 110.29 32.049 110.22 30.3615C110.15 28.6623 110.114 27.338 110.114 26.3888V12.924H113.964V38.6232ZM135.568 31.6447C135.568 33.9298 134.741 35.7228 133.089 37.0236C131.437 38.3244 129.157 38.9748 126.251 38.9748C123.345 38.9748 120.966 38.5236 119.114 37.6212V33.6486C120.286 34.1994 121.528 34.633 122.841 34.9494C124.165 35.2658 125.396 35.424 126.532 35.424C128.196 35.424 129.421 35.1076 130.206 34.4748C131.003 33.8419 131.401 32.9923 131.401 31.9259C131.401 30.965 131.038 30.1505 130.312 29.4826C129.585 28.8146 128.085 28.0236 125.812 27.1095C123.468 26.1603 121.816 25.0763 120.855 23.8576C119.894 22.6388 119.413 21.174 119.413 19.463C119.413 17.3185 120.175 15.631 121.698 14.4005C123.222 13.1701 125.267 12.5548 127.833 12.5548C130.294 12.5548 132.743 13.0939 135.181 14.172L133.845 17.5998C131.56 16.6388 129.521 16.1584 127.728 16.1584C126.368 16.1584 125.337 16.4572 124.634 17.0548C123.931 17.6408 123.579 18.4201 123.579 19.3927C123.579 20.0607 123.72 20.6349 124.001 21.1154C124.282 21.5841 124.745 22.0294 125.39 22.4513C126.034 22.8732 127.194 23.4298 128.87 24.1212C130.757 24.9064 132.14 25.6388 133.019 26.3185C133.898 26.9982 134.542 27.7658 134.952 28.6212C135.362 29.4767 135.568 30.4845 135.568 31.6447ZM144.708 38.6232H140.542V12.924H155.044V16.4748H144.708V24.508H154.394V28.0763H144.708V38.6232ZM174.521 31.6447C174.521 33.9298 173.694 35.7228 172.042 37.0236C170.39 38.3244 168.11 38.9748 165.204 38.9748C162.298 38.9748 159.919 38.5236 158.068 37.6212V33.6486C159.239 34.1994 160.482 34.633 161.794 34.9494C163.118 35.2658 164.349 35.424 165.485 35.424C167.15 35.424 168.374 35.1076 169.159 34.4748C169.956 33.8419 170.355 32.9923 170.355 31.9259C170.355 30.965 169.991 30.1505 169.265 29.4826C168.538 28.8146 167.038 28.0236 164.765 27.1095C162.421 26.1603 160.769 25.0763 159.808 23.8576C158.847 22.6388 158.366 21.174 158.366 19.463C158.366 17.3185 159.128 15.631 160.651 14.4005C162.175 13.1701 164.22 12.5548 166.786 12.5548C169.247 12.5548 171.696 13.0939 174.134 14.172L172.798 17.5998C170.513 16.6388 168.474 16.1584 166.681 16.1584C165.321 16.1584 164.29 16.4572 163.587 17.0548C162.884 17.6408 162.532 18.4201 162.532 19.3927C162.532 20.0607 162.673 20.6349 162.954 21.1154C163.235 21.5841 163.698 22.0294 164.343 22.4513C164.987 22.8732 166.148 23.4298 167.823 24.1212C169.71 24.9064 171.093 25.6388 171.972 26.3185C172.851 26.9982 173.495 27.7658 173.905 28.6212C174.316 29.4767 174.521 30.4845 174.521 31.6447ZM199.64 12.924V29.5529C199.64 31.4513 199.23 33.1154 198.409 34.5451C197.601 35.963 196.423 37.0587 194.876 37.8322C193.341 38.5939 191.501 38.9748 189.357 38.9748C186.169 38.9748 183.691 38.131 181.921 36.4435C180.151 34.756 179.267 32.4357 179.267 29.4826V12.924H183.485V29.1837C183.485 31.3048 183.978 32.8693 184.962 33.8771C185.946 34.8849 187.458 35.3888 189.497 35.3888C193.458 35.3888 195.439 33.3087 195.439 29.1486V12.924H199.64Z"
        fill="#6A60A9" />
    <g clip-path="url(#clip0)">
        <path
            d="M36.3633 8.51384L48.7596 19.2725C49.3574 19.7914 49.3574 20.6326 48.7596 21.1515L47.3137 22.4063C46.7169 22.9243 45.7496 22.9253 45.1513 22.4085L35.2807 13.8821L25.4102 22.4086C24.812 22.9254 23.8447 22.9244 23.2478 22.4064L21.802 21.1515C21.2041 20.6326 21.2041 19.7914 21.802 19.2726L34.1983 8.51389C34.7961 7.99501 35.7654 7.99501 36.3633 8.51384Z"
            fill="#6A60A9" />
    </g>
    <g clip-path="url(#clip1)">
        <path
            d="M36.75 13.7147V14.6758C36.75 15.2991 37.1482 15.8388 37.7172 16.0065C41.9565 17.2557 45.0625 21.3567 45.0625 26.2307C45.0625 32.0974 40.562 36.8461 35 36.8461C29.4389 36.8461 24.9375 32.0983 24.9375 26.2307C24.9375 21.3574 28.043 17.2559 32.2827 16.0065C32.8518 15.8388 33.25 15.299 33.25 14.6756V13.7152C33.25 12.8089 32.4388 12.1486 31.6069 12.3747C25.7361 13.97 21.4044 19.608 21.4377 26.3076C21.4771 34.2144 27.5341 40.555 35.0292 40.5384C42.5062 40.5217 48.5625 34.1223 48.5625 26.2307C48.5625 19.5596 44.2346 13.955 38.3791 12.3709C37.5527 12.1474 36.75 12.8147 36.75 13.7147Z"
            fill="#6A60A9" />
        <path
            d="M35 13.923C31.5979 13.923 28.84 17.0914 28.84 20.9999C28.84 24.9084 31.5979 28.0769 35 28.0769C38.4021 28.0769 41.16 24.9084 41.16 20.9999C41.16 17.0914 38.4021 13.923 35 13.923ZM36.9871 20.9999C36.9871 22.2587 36.0957 23.2828 35 23.2828C33.9043 23.2828 33.0129 22.2587 33.0129 20.9999C33.0129 19.7412 33.9043 18.7171 35 18.7171C36.0957 18.7171 36.9871 19.7412 36.9871 20.9999Z"
            fill="#6A60A9" />
    </g>
    <defs>
        <clipPath id="clip0">
            <rect width="28" height="29.5385" fill="#6A60A9" transform="translate(21 1)" />
        </clipPath>
        <clipPath id="clip1">
            <rect width="28" height="29.5385" fill="#6A60A9" transform="translate(21 11.4615)" />
        </clipPath>
    </defs>
</svg>