<svg width="18" height="17" viewBox="0 0 18 17" fill="none" xmlns="http://www.w3.org/2000/svg">
<path d="M17.1562 8.5H2.8125V3.03571C2.8125 2.36615 3.31717 1.82143 3.9375 1.82143C4.33656 1.82143 4.68745 2.04702 4.88725 2.38607C4.30745 3.34259 4.37091 4.64677 5.12764 5.53695C4.98083 5.71579 4.98628 5.98912 5.14491 6.16034L5.54266 6.58966C5.70741 6.76748 5.97452 6.76748 6.1393 6.58966L9.4802 2.98365C9.64494 2.80583 9.64494 2.51752 9.4802 2.33966L9.08244 1.91034C8.92382 1.73912 8.67059 1.73328 8.50489 1.89171C7.87388 1.26677 7.018 1.07855 6.24864 1.30866C5.74035 0.518614 4.89417 0 3.9375 0C2.38669 0 1.125 1.36182 1.125 3.03571V8.5H0.84375C0.377754 8.5 0 8.90773 0 9.41071V10.0179C0 10.5208 0.377754 10.9286 0.84375 10.9286H1.125V12.1429C1.125 13.2217 1.5596 14.1908 2.25 14.8578V16.0893C2.25 16.5923 2.62775 17 3.09375 17H3.65625C4.12225 17 4.5 16.5923 4.5 16.0893V15.7857H13.5V16.0893C13.5 16.5923 13.8778 17 14.3438 17H14.9062C15.3722 17 15.75 16.5923 15.75 16.0893V14.8578C16.4404 14.1908 16.875 13.2217 16.875 12.1429V10.9286H17.1562C17.6222 10.9286 18 10.5208 18 10.0179V9.41071C18 8.90773 17.6222 8.5 17.1562 8.5Z" fill="#545156"/>
</svg>
